<svg id="Layer_1" data-name="Layer 1" xmlns="http://www.w3.org/2000/svg" viewBox="0 0 117 32">
	<defs>
		<style>
			.cls-1 {
				fill:none;
				stroke:#000;
				stroke-miterlimit:10;
			}

			.shape {
			    fill: none;
			    stroke: #fdbe3e;
			    stroke-width: 17px;
			    stroke-linecap: round;
			    stroke-dasharray: 1353px;
			    stroke-dashoffset: 1353px;
			    animation: move 13s cubic-bezier(.14,.6,.82,.45);
			    animation-fill-mode: forwards; 
			}

			@keyframes move {
			    100% {
			        stroke-dashoffset: 0;
			    }
			}
		</style>
	</defs>
	<title>Oval</title>

	<clipPath id="clipPath">
		<path class="cls-1" d="M66.71.42a5.57,5.57,0,0,1-.88-.11c-.3,0-.72.08-1,.09-.55,0-1.09.1-1.64.1l-4.65,0H54.46c-2,0-4.08.06-6.11.16L44.11.86c-.42,0-3,.27-3.39.3-.17,0-1.33.2-2.28.31,0,1,.35,1.81.38,2.75,3-.28,6-.55,8.85-.69,1.82-.1,3.64-.16,5.46-.2l2.72,0h2.4L62,3.3c1.39.08,2.77.53,4.11.59a2,2,0,0,0,1-.21c.32-.18.41-.12.53-.25a1.26,1.26,0,0,0,.2-.8C67.88,1.69,67.4.37,66.71.42Z"/><path class="cls-1" d="M23.09,3.44l-1.21.24L20,4.1l-.42.08c-.65.13-1.39.32-2.15.54-2.11.53-4.22,1.15-6.3,1.9A33.91,33.91,0,0,0,5,9.43,15.35,15.35,0,0,0,2.14,11.6a6.64,6.64,0,0,0-2,3.5,5.42,5.42,0,0,0,1,4.07,10.48,10.48,0,0,0,2.66,2.55,37,37,0,0,0,8.53,4,93.34,93.34,0,0,0,16,3.74c2.55.38,4.26.47,7.66,1,1.49.18,4.3.54,5.77.62,2.72.18,4.1.19,6.83.29,6.06.17,12.13.14,18.2-.13L71.62,31a64.21,64.21,0,0,0,7.31-.57c2.26-.34,4.21-.65,6.74-.92a103.65,103.65,0,0,0,12.12-2.15c1.61-.37,3.16-.77,4.68-1.2.76-.23,1.52-.44,2.26-.7l1.12-.37.9-.32c1-.36,2-.75,3.12-1.19a11.36,11.36,0,0,0,1.89-.82A17.48,17.48,0,0,0,116,19.5a2.64,2.64,0,0,0,.44-.75,3.4,3.4,0,0,0,.31-1.07,1.87,1.87,0,0,0-.28-1.57c-.25-.15-.6.05-.85-.07s-.75.09-1.12.28l-.52.31a1.18,1.18,0,0,0-.33.34,5.44,5.44,0,0,1-1.46,1.79,17.24,17.24,0,0,1-2.35,1.52,13.07,13.07,0,0,1-2,1.23c-.38.14-.75.31-1.12.48a5.19,5.19,0,0,1-.59.24l-.94.29c-3.55,1.08-7.38,2.19-11.2,2.95a170.27,170.27,0,0,1-25.84,2.87c-5.5.2-11.1.4-16.48.28a187.06,187.06,0,0,1-22.33-1.81c-3.7-.53-7.36-1.21-11-2.08A54.39,54.39,0,0,1,8,21.2a14,14,0,0,1-4.23-2.91,4,4,0,0,1-1-1.87,2.62,2.62,0,0,1,.41-1.88,7.49,7.49,0,0,1,2.18-2.2,18.34,18.34,0,0,1,2.73-1.62,34.69,34.69,0,0,1,6.3-2.31l.72-.19h0l.11,0c1.41-.38,2.93-.76,4.44-1.12a77.89,77.89,0,0,1,8.84-1.7,5.82,5.82,0,0,0,.61-3c-.82.1-1.56.23-2.46.39Z"/><path class="cls-1" d="M62.84.68A8.5,8.5,0,0,1,61.68.61c-.52,0-1.49-.16-2-.15L58.51.5h-.77l-1.83,0c-6.07.1-12.14.41-18.19,1L32.94,2a58.53,58.53,0,0,0-7.28,1c-2.24.51-4.17,1-6.67,1.48A52.17,52.17,0,0,0,7.14,8.36a19.48,19.48,0,0,0-4.62,3A7.81,7.81,0,0,0,.69,13.7,5.28,5.28,0,0,0,.21,17,7.67,7.67,0,0,0,3.05,21a20.83,20.83,0,0,0,3.79,2.34,5.65,5.65,0,0,1-.35-2.7,13.13,13.13,0,0,1-2.44-1.87,4.49,4.49,0,0,1-1.29-2.26.19.19,0,0,1,0-.13,2.26,2.26,0,0,1,.08-1C3.21,14.19,4.6,13,6.12,12A26.33,26.33,0,0,1,11.2,9.5,77.65,77.65,0,0,1,23.64,6.2c4.26-.8,8.57-1.38,12.88-1.77,5.47-.49,11-1,16.43-1.07,1.52,0,3,0,4.58-.06h1.94l3.16,0A4.12,4.12,0,0,1,62.84.68Z"/><path class="cls-1" d="M87.68,3.88a.94.94,0,0,1-.36,1,1.53,1.53,0,0,1-1.46.22,16.27,16.27,0,0,0-4.08-.46c-1.49-.15-3-.39-4.5-.39-1.09,0-2.57-.35-3.63,0a2.09,2.09,0,0,1-2.51-1,1.74,1.74,0,0,1,0-1.43C71.47,1,72.84,1,73.68,1s1.42.51,2.29.58c.43,0,.84.16,1.27.21,1.51.21,3,.38,4.52.64.71.11,1.37.41,2.06.58s1.44,0,2.14.13C86.43,3.21,87.53,3.37,87.68,3.88Z"/><path class="cls-1" d="M92.35,6.73c-.48-.09-1.91-.4-1.84-1.11A1.47,1.47,0,0,1,91,4.8a11.88,11.88,0,0,1,1.13-1,1.63,1.63,0,0,1,.71-.32c.69-.09,1.38.4,2,.55a21.77,21.77,0,0,1,3.27,1.5c1.18.5,2.34.41,2.68,1.64a2.59,2.59,0,0,1-1.38.49C97.24,7.32,95,7,92.69,6.77Z"/><path class="cls-1" d="M106.75,10.4a2.46,2.46,0,0,1-1.09-.76c-.7-.92-.34-2.71,1.13-2.32a7.39,7.39,0,0,1,2.14,1.22c.51.31,2,1.59,1.17,2a6.39,6.39,0,0,1-2.82,0A3.18,3.18,0,0,1,106.75,10.4Z"/><path class="cls-1" d="M115.68,16l-.08,0a1.75,1.75,0,0,1-1-.2,5.88,5.88,0,0,1-.75-.42,1.62,1.62,0,0,1-.5-.51,1,1,0,0,1-.18-.73c0-.79.87-2.18,2-1.82A1.88,1.88,0,0,1,116,13a3.24,3.24,0,0,1,.47,1.2C116.59,15.08,116.18,15.88,115.68,16Z"/>
	</clipPath>

	<ellipse class="shape" clip-path="url(#clipPath)" cx="58" cy="15.02" rx="58" ry="14.52"/>
</svg>